<?xml version="1.0" encoding="utf-8"?>
<!-- Generator: Adobe Illustrator 17.0.0, SVG Export Plug-In . SVG Version: 6.00 Build 0)  -->
<!DOCTYPE svg PUBLIC "-//W3C//DTD SVG 1.1//EN" "http://www.w3.org/Graphics/SVG/1.1/DTD/svg11.dtd">
<svg version="1.1" id="Layer_1" xmlns="http://www.w3.org/2000/svg" xmlns:xlink="http://www.w3.org/1999/xlink" x="0px" y="0px"
	 width="1200px" height="1200px" viewBox="0 0 1200 1200" enable-background="new 0 0 1200 1200" xml:space="preserve">
<g>
	<g>
		<path fill="#003547" d="M665.62,425.119c8.693-13.221,13.01-27.147,13.01-41.693c0-14.57-3.766-25.352-11.298-32.414
			c-7.519-7.004-15.543-10.546-24.036-10.546c-20.929,0-40.122,7.285-57.649,21.855c-17.503,14.57-30.818,32.215-39.992,52.979
			c-9.138,20.799-13.737,41.646-13.737,62.563c36.32-1.314,65.508-7.121,87.598-17.421
			C641.594,450.152,656.95,438.339,665.62,425.119z"/>
		<path fill="#003547" d="M1096.301,451.397c0.083-2.968-0.153-6.053-0.926-9.315c-0.047-0.482-0.083-0.95-0.141-1.455h-0.165
			c-3.684-13.573-14.934-29.318-34.232-46.07l-69.614-60.287c-58.821-51.008-155.101-134.477-213.91-185.508l-69.707-60.429
			c-58.833-50.973-155.265-51.137-214.262-0.34l-69.825,60.099c-58.973,50.786-155.57,133.937-214.579,184.723l-69.872,60.205
			c-26.97,23.204-38.22,44.509-35.229,60.781c-0.891,4.857-0.364,10.206,1.314,15.849v558.776
			c0,67.08,43.089,121.573,96.232,121.573h798.989c53.167,0,96.256-54.493,96.256-121.573V458.154
			C1096.63,455.866,1096.466,453.602,1096.301,451.397z M475.019,395.18c20.577-28.614,46.363-50.786,77.286-66.494
			c30.913-15.684,61.367-23.533,91.494-23.533c30.102,0,56.169,6.887,78.247,20.624c22.079,13.714,33.375,32.203,33.857,55.443
			c0.505,23.228-6.289,43.242-20.355,60.099c-14.065,16.858-31.874,29.668-53.483,38.503c-42.855,17.35-84.888,26.02-126.089,26.02
			l-21.128-0.985c1.971,37.61,27.346,56.439,76.066,56.439c17.973,0,36.708-5.162,56.194-15.462
			c19.462-10.324,35.229-22.501,47.336-36.567l21.104,13.762c-27.158,45.47-70.505,73.25-130.006,83.386
			c-13.104,1.97-25.704,2.956-37.811,2.956c-35.335,0-64.769-11.697-88.325-35.089c-23.533-23.393-35.312-51.923-35.312-85.628
			C444.096,454.974,454.419,423.816,475.019,395.18z M161.956,989.421V534.302l46.984,40.45
			c58.622,50.504,154.233,132.764,213.335,183.702L163.728,1010.83C162.579,1003.92,161.956,996.764,161.956,989.421z
			 M954.598,1094.581H247.174c-21.399,0-40.908-9.819-55.889-25.95l277.072-270.502l24.987,21.516
			c58.998,50.809,155.429,50.644,214.262-0.364l23.756-20.589l277.787,277.776C994.321,1089.114,975.258,1094.581,954.598,1094.581z
			 M1039.827,989.421c0.104,10.969-0.704,20.834-2.124,29.903L777.255,758.887l0.059-0.023
			c58.809-51.008,155.089-134.5,213.91-185.474l48.603-42.151V989.421z"/>
	</g>
</g>
</svg>
